# xmcd
#
# Track frame offsets:
#	150
#	16915
#	30869
#	52397
#	65973
#	80422
#	82685
#	98874
#	112979
#	129636
#	153883
#	169200
#	187366
#	195738
#	210485
#	220871
#	225143
#	246240
#
# Disc length: 3423 seconds
#
# Revision: 2
# Processed by: cddbd v1.5.1PL0 Copyright (c) Steve Scherf et al.
# Submitted via: audiograbber 1.83.01
#
DISCID=ef0d5d12
DTITLE=Dead Can Dance - Unreleased Tracks Vol. 5
DYEAR=1900
DGENRE=
TTITLE0=Agniau Dous
TTITLE1=Reached From Above
TTITLE2=Lyndra
TTITLE3=Solo Flute
TTITLE4=Sailing The Seas
TTITLE5=Afrika
TTITLE6=Eyeless In Gaza
TTITLE7=They Don´t Even Cry
TTITLE8=Solo Tar
TTITLE9=Rabahsima
TTITLE10=Noctambulist
TTITLE11=Ichor
TTITLE12=Orphan
TTITLE13=The Roses
TTITLE14=Solo Whistle
TTITLE15=El Nino
TTITLE16=Mosaic
TTITLE17=Summerhouse
EXTD=
EXTT0=
EXTT1=
EXTT2=
EXTT3=
EXTT4=
EXTT5=
EXTT6=
EXTT7=
EXTT8=
EXTT9=
EXTT10=
EXTT11=
EXTT12=
EXTT13=
EXTT14=
EXTT15=
EXTT16=
EXTT17=
PLAYORDER=
